<svg width="1352" height="1082" viewBox="0 0 1352 1082" fill="none" xmlns="http://www.w3.org/2000/svg">
<g clip-path="url(#clip0_796_412)">
<rect width="1352" height="1082.11" rx="61" fill="black"/>
<path d="M788.857 145.906C762.502 138.307 735.063 153.66 727.467 180.024L529.035 874.793C521.438 901.157 536.786 928.607 563.14 936.206C589.494 943.805 616.934 928.452 624.53 902.088L822.962 207.318C830.558 180.954 815.211 153.505 788.857 145.906ZM913.807 332.16C894.429 351.545 894.429 383.027 913.807 402.412L1052.24 541.056L913.652 679.699C894.274 699.085 894.274 730.566 913.652 749.952C933.03 769.337 964.5 769.337 983.878 749.952L1157.51 576.259C1176.88 556.874 1176.88 525.392 1157.51 506.007L983.878 332.315C964.5 312.93 933.03 312.93 913.652 332.315L913.807 332.16ZM438.345 332.16C418.967 312.774 387.497 312.774 368.119 332.16L194.491 505.852C175.112 525.237 175.112 556.719 194.491 576.104L368.119 749.797C387.497 769.182 418.967 769.182 438.345 749.797C457.723 730.411 457.723 698.93 438.345 679.544L299.753 541.056L438.345 402.412C457.723 383.027 457.723 351.545 438.345 332.16Z" fill="white"/>
</g>
<defs>
<clipPath id="clip0_796_412">
<rect width="1352" height="1082" fill="white"/>
</clipPath>
</defs>
</svg>
